<svg width="55" height="55" viewBox="0 0 55 55" fill="none" xmlns="http://www.w3.org/2000/svg">
<rect x="0.5" y="0.5" width="54" height="54" rx="27" fill="#007AFF" stroke="#007AFF"/>
<path d="M21.7009 29.5697C21.3565 29.774 21.125 30.1495 21.125 30.5781C21.125 31.2243 21.6507 31.75 22.2969 31.75C22.8061 31.75 23.2403 31.4234 23.4016 30.9688H26.4375C27.0837 30.9688 27.6094 31.4945 27.6094 32.1406C27.6094 32.7868 27.0837 33.3125 26.4375 33.3125H21.75C20.673 33.3125 19.7969 34.1887 19.7969 35.2656C19.7969 36.3426 20.673 37.2188 21.75 37.2188H25.6562C25.872 37.2188 26.0469 37.0439 26.0469 36.8281C26.0469 36.6124 25.872 36.4375 25.6562 36.4375H21.75C21.1038 36.4375 20.5781 35.9118 20.5781 35.2656C20.5781 34.6195 21.1038 34.0938 21.75 34.0938H26.4375C27.5145 34.0938 28.3906 33.2176 28.3906 32.1406C28.3906 31.0637 27.5145 30.1875 26.4375 30.1875H23.4016C23.3092 29.927 23.1272 29.7087 22.8928 29.5697L25.8763 24.6745C26.3457 23.9691 26.5938 23.147 26.5938 22.2969C26.5938 19.9276 24.6662 18 22.2969 18C19.9276 18 18 19.9276 18 22.2969C18 23.147 18.2481 23.9691 18.7174 24.6745L21.7009 29.5697ZM22.2969 30.9688C22.0815 30.9688 21.9062 30.7935 21.9062 30.5781C21.9062 30.3627 22.0815 30.1875 22.2969 30.1875C22.5123 30.1875 22.6875 30.3627 22.6875 30.5781C22.6875 30.7935 22.5123 30.9688 22.2969 30.9688ZM22.2969 18.7812C24.2354 18.7812 25.8125 20.3584 25.8125 22.2969C25.8125 22.9948 25.6083 23.6693 25.2221 24.2475C25.2191 24.252 25.2161 24.2565 25.2133 24.2612L22.2969 29.0463C22.2969 29.0463 19.3747 24.252 19.3717 24.2475C18.9854 23.6693 18.7812 22.9948 18.7812 22.2969C18.7812 20.3584 20.3584 18.7812 22.2969 18.7812Z" fill="white"/>
<path d="M22.2969 24.25C23.3738 24.25 24.25 23.3738 24.25 22.2969C24.25 21.2199 23.3738 20.3438 22.2969 20.3438C21.2199 20.3438 20.3438 21.2199 20.3438 22.2969C20.3438 23.3738 21.2199 24.25 22.2969 24.25ZM22.2969 21.125C22.943 21.125 23.4688 21.6507 23.4688 22.2969C23.4688 22.943 22.943 23.4688 22.2969 23.4688C21.6507 23.4688 21.125 22.943 21.125 22.2969C21.125 21.6507 21.6507 21.125 22.2969 21.125Z" fill="white"/>
<path d="M33.7031 24.4844C31.3338 24.4844 29.4062 26.412 29.4062 28.7812C29.4062 29.6328 29.6551 30.4561 30.1259 31.1623L33.0983 35.8248C32.8682 35.964 32.6897 36.1803 32.5985 36.4375H29.1719C28.9561 36.4375 28.7812 36.6124 28.7812 36.8281C28.7812 37.0439 28.9561 37.2188 29.1719 37.2188H32.5984C32.7597 37.6734 33.1939 38 33.7031 38C34.3493 38 34.875 37.4743 34.875 36.8281C34.875 36.4031 34.6475 36.0302 34.308 35.8248L37.2804 31.1623C37.7511 30.4561 38 29.6328 38 28.7812C38 26.412 36.0724 24.4844 33.7031 24.4844ZM33.7031 37.2188C33.4877 37.2188 33.3125 37.0435 33.3125 36.8281C33.3125 36.6127 33.4877 36.4375 33.7031 36.4375C33.9185 36.4375 34.0938 36.6127 34.0938 36.8281C34.0938 37.0435 33.9185 37.2188 33.7031 37.2188ZM36.6283 30.7318C36.6268 30.7342 33.7031 35.3202 33.7031 35.3202C33.7031 35.3202 30.7795 30.7341 30.7779 30.7318C30.3917 30.1537 30.1875 29.4792 30.1875 28.7812C30.1875 26.8427 31.7646 25.2656 33.7031 25.2656C35.6416 25.2656 37.2188 26.8427 37.2188 28.7812C37.2188 29.4792 37.0146 30.1537 36.6283 30.7318Z" fill="white"/>
<path d="M33.7031 26.8281C32.6262 26.8281 31.75 27.7043 31.75 28.7812C31.75 29.8582 32.6262 30.7344 33.7031 30.7344C34.7801 30.7344 35.6562 29.8582 35.6562 28.7812C35.6562 27.7043 34.7801 26.8281 33.7031 26.8281ZM33.7031 29.9531C33.057 29.9531 32.5312 29.4274 32.5312 28.7812C32.5312 28.1351 33.057 27.6094 33.7031 27.6094C34.3493 27.6094 34.875 28.1351 34.875 28.7812C34.875 29.4274 34.3493 29.9531 33.7031 29.9531Z" fill="white"/>
<path d="M27.4141 37.2188C27.6298 37.2188 27.8047 37.0439 27.8047 36.8281C27.8047 36.6124 27.6298 36.4375 27.4141 36.4375C27.1983 36.4375 27.0234 36.6124 27.0234 36.8281C27.0234 37.0439 27.1983 37.2188 27.4141 37.2188Z" fill="white"/>
</svg>
