<svg width="10" height="14" viewBox="0 0 10 14" fill="none" xmlns="http://www.w3.org/2000/svg">
<path d="M4.99655 0C3.67075 0.0018383 2.39987 0.532566 1.46304 1.47563C0.526199 2.41868 -1.26117e-06 3.69697 0 5.02973C0 7.80476 4.99655 14 4.99655 14C4.99655 14 10 7.80476 10 5.02973C10 3.69576 9.47285 2.41643 8.53452 1.47317C7.59619 0.529917 6.32355 0 4.99655 0V0ZM4.99655 7.38157C4.54066 7.38157 4.095 7.24567 3.71594 6.99106C3.33688 6.73644 3.04143 6.37456 2.86697 5.95115C2.69251 5.52775 2.64686 5.06185 2.7358 4.61237C2.82474 4.16289 3.04428 3.75001 3.36664 3.42595C3.68901 3.10189 4.09973 2.88121 4.54686 2.7918C4.99399 2.70239 5.45746 2.74828 5.87865 2.92366C6.29984 3.09904 6.65984 3.39603 6.91312 3.77708C7.1664 4.15814 7.30159 4.60613 7.30159 5.06442C7.30159 5.36871 7.24197 5.67002 7.12613 5.95115C7.01029 6.23228 6.8405 6.48772 6.62646 6.70289C6.41242 6.91806 6.15831 7.08874 5.87865 7.20518C5.59899 7.32163 5.29925 7.38157 4.99655 7.38157V7.38157Z" fill="#007AFF"/>
</svg>
