<svg width="55" height="55" viewBox="0 0 55 55" fill="none" xmlns="http://www.w3.org/2000/svg">
<rect x="0.25" y="0.25" width="54.5" height="54.5" rx="27.25" fill="white" stroke="#4D4D4D" stroke-width="0.5"/>
<path d="M35.0534 21.1203C34.8817 21.073 34.7044 21.1749 34.6574 21.3483C34.6104 21.5216 34.7113 21.7006 34.883 21.7483C37.0575 22.3502 38.3556 23.2043 38.3556 24.0329V24.0376C38.3556 24.3694 38.1373 24.8864 37.0969 25.4642C36.276 25.9201 35.113 26.3107 33.7205 26.5994C33.6277 26.6186 33.5339 26.6374 33.439 26.6557C33.2873 26.685 33.1774 26.8193 33.1774 26.9755V29.9331C32.6369 29.8382 32.0727 29.759 31.4923 29.6954L31.6241 27.7925C31.6365 27.6131 31.5027 27.4576 31.3252 27.4451C31.1479 27.4327 30.9937 27.5677 30.9812 27.7471L30.8057 30.2826C30.7808 30.6381 30.4852 30.9167 30.1329 30.9167H29.9616C29.7949 30.9167 29.6557 31.045 29.6406 31.2127L29.1173 37.0224H26.8829L26.3597 31.2127C26.3446 31.045 26.2055 30.9167 26.0388 30.9167H25.8674C25.5149 30.9167 25.2195 30.6381 25.1947 30.2831L24.8531 25.3516C24.8219 24.9001 24.9731 24.4691 25.2786 24.1382C25.5841 23.8074 25.9988 23.6253 26.4465 23.6253H29.5537C30.0013 23.6253 30.4161 23.8074 30.7216 24.1382C31.0272 24.4691 31.1785 24.9001 31.1472 25.3514L31.0715 26.4438C31.0591 26.6232 31.1929 26.7786 31.3705 26.7912C31.5476 26.8032 31.702 26.6686 31.7144 26.4892L31.7901 25.3969C31.8332 24.7724 31.6155 24.1519 31.1929 23.6941C30.8033 23.2725 30.265 23.017 29.6982 22.9797C30.2362 22.5043 30.5779 21.808 30.5824 21.0321C31.6645 21.1195 32.7002 21.2609 33.6502 21.4545C33.8247 21.4899 33.9946 21.3758 34.0297 21.1996C34.0649 21.0235 33.9521 20.8517 33.7776 20.8163C32.7644 20.6098 31.658 20.461 30.5025 20.3728C30.2152 19.236 29.1829 18.408 28.0001 18.408C26.8173 18.408 25.7852 19.236 25.498 20.3718C23.5677 20.5186 21.7939 20.8348 20.3521 21.2978C18.1592 22.0021 17 22.9478 17 24.0329V33.2682C17 34.1876 17.8661 34.8616 18.5925 35.2653C19.5268 35.7841 20.8571 36.2199 22.44 36.5258C22.4601 36.5297 22.4804 36.5316 22.5005 36.5316C22.5749 36.5316 22.6476 36.5056 22.7058 36.457C22.7798 36.3951 22.8228 36.3032 22.8228 36.206V33.9152C22.8228 33.7355 22.6785 33.5898 22.5005 33.5898C22.3226 33.5898 22.1783 33.7355 22.1783 33.9152V35.8088C20.8306 35.5225 19.704 35.1396 18.9031 34.6947C17.8627 34.1169 17.6445 33.6 17.6445 33.2682V25.3529C17.6447 25.3533 17.645 25.3534 17.6454 25.3538C17.6781 25.3855 17.7118 25.4163 17.7459 25.4467C17.7504 25.4508 17.755 25.455 17.7597 25.4589C17.7926 25.4879 17.826 25.5162 17.8599 25.544C17.8661 25.5491 17.8723 25.5542 17.8787 25.5593C17.9124 25.5867 17.9467 25.6135 17.9812 25.6396C17.9866 25.6437 17.9921 25.6478 17.9977 25.6518C18.0338 25.679 18.0702 25.7058 18.107 25.7315C18.1073 25.7317 18.1076 25.732 18.108 25.7324C18.1449 25.7581 18.182 25.7832 18.2191 25.8078C18.2241 25.8114 18.2293 25.8148 18.2345 25.8183C18.2703 25.8417 18.3059 25.8644 18.3416 25.8867C18.348 25.8907 18.3545 25.8946 18.3609 25.8987C18.3965 25.9207 18.4321 25.9421 18.4673 25.963C18.4725 25.9658 18.4776 25.9687 18.4826 25.9718C18.5195 25.9933 18.5563 26.0143 18.5925 26.0345C19.0889 26.3102 19.697 26.5625 20.3952 26.7842C20.628 26.8581 20.8707 26.9285 21.1228 26.9955C21.2909 27.0401 21.4629 27.0831 21.639 27.1243C21.8149 27.1655 21.9948 27.2052 22.1783 27.243V32.6133C22.1783 32.7932 22.3226 32.9388 22.5005 32.9388C22.6785 32.9388 22.8228 32.7932 22.8228 32.6133V30.5944C23.376 30.4943 23.9555 30.4109 24.5532 30.345C24.6062 30.9901 25.1158 31.5021 25.7439 31.5618L26.2677 37.3774C26.2828 37.5451 26.422 37.6734 26.5887 37.6734H29.4113C29.578 37.6734 29.7172 37.5451 29.7323 37.3774L30.2561 31.5618C30.8842 31.5019 31.3936 30.9902 31.4468 30.345C32.0447 30.4109 32.624 30.4943 33.1774 30.5944V36.2062C33.1774 36.3032 33.2202 36.3951 33.2942 36.457C33.3524 36.5056 33.4253 36.5317 33.4995 36.5317C33.5196 36.5317 33.5399 36.5297 33.56 36.5258C35.143 36.2199 36.4734 35.7841 37.4075 35.2653C38.1341 34.8617 39 34.1876 39 33.2682V24.0329C39.0002 22.8593 37.5985 21.8249 35.0534 21.1203ZM26.0831 20.7288C26.2216 19.7767 27.0457 19.0588 28.0001 19.0588C28.9545 19.0588 29.7786 19.7767 29.9174 20.73C29.9312 20.8229 29.9382 20.9192 29.9382 21.0165C29.9382 22.096 29.0688 22.9743 28.0001 22.9743C26.9314 22.9743 26.0619 22.096 26.0619 21.0165C26.0619 20.9192 26.069 20.8229 26.0831 20.7288ZM22.5611 26.6557C21.0438 26.3626 19.7789 25.9504 18.9032 25.464C17.8627 24.8862 17.6445 24.3694 17.6445 24.0376V24.0329C17.6445 23.2925 18.7297 22.5019 20.5473 21.9182C21.9116 21.4799 23.588 21.1774 25.4179 21.0308C25.4219 21.8071 25.7638 22.5039 26.3021 22.9795C25.7351 23.017 25.1969 23.2723 24.8074 23.6941C24.3848 24.1517 24.1671 24.7724 24.2101 25.3969L24.5078 29.6954C23.9276 29.759 23.3633 29.8382 22.8228 29.9331V26.9755C22.8228 26.8193 22.713 26.685 22.5611 26.6557ZM38.3556 33.2682C38.3556 33.6 38.1373 34.1169 37.0969 34.6947C36.296 35.1396 35.1694 35.5225 33.8219 35.8088V27.243C35.2899 26.9405 36.5254 26.5245 37.4076 26.0345C37.4437 26.0145 37.4801 25.9936 37.5169 25.9721C37.5223 25.9689 37.5278 25.9658 37.5332 25.9626C37.5683 25.9421 37.6035 25.9207 37.6389 25.899C37.6456 25.8948 37.6522 25.8907 37.6589 25.8865C37.6945 25.8644 37.7301 25.8417 37.7655 25.8183C37.7708 25.8149 37.7761 25.8114 37.7814 25.8078C37.8183 25.7834 37.8553 25.7583 37.892 25.7325C37.8924 25.7322 37.8929 25.7319 37.8934 25.7315C37.93 25.7058 37.9662 25.6791 38.0025 25.6522C38.008 25.6479 38.0136 25.6439 38.0191 25.6396C38.0535 25.6135 38.0876 25.5867 38.1215 25.5594C38.1277 25.5544 38.1341 25.5491 38.1405 25.544C38.1742 25.5162 38.2076 25.4881 38.2405 25.4591C38.2452 25.455 38.2499 25.4508 38.2546 25.4465C38.2883 25.4163 38.3217 25.3858 38.3541 25.3545C38.3546 25.354 38.3553 25.3534 38.3558 25.3531V33.2682H38.3556Z" fill="#4C4C4C"/>
</svg>
